<svg fill="none" height="24" viewBox="0 0 24 24" width="24" xmlns="http://www.w3.org/2000/svg"><path clip-rule="evenodd" d="m12 4c.2652 0 .5196.10536.7071.29289.1875.18754.2929.44189.2929.70711v6h6c.2652 0 .5196.1054.7071.2929s.2929.4419.2929.7071-.1054.5196-.2929.7071-.4419.2929-.7071.2929h-6v6c0 .2652-.1054.5196-.2929.7071s-.4419.2929-.7071.2929-.5196-.1054-.7071-.2929-.2929-.4419-.2929-.7071v-6h-6c-.26522 0-.51957-.1054-.70711-.2929-.18753-.1875-.29289-.4419-.29289-.7071s.10536-.5196.29289-.7071c.18754-.1875.44189-.2929.70711-.2929h6v-6c0-.26522.1054-.51957.2929-.70711.1875-.18753.4419-.29289.7071-.29289z" fill="#000" fill-rule="evenodd"/></svg>